<svg width="43" height="70" viewBox="0 0 43 70" fill="none" xmlns="http://www.w3.org/2000/svg">
<circle cx="21.8157" cy="6.84211" r="6.34211" fill="#EF5A3C" stroke="#EF5A3C"/>
<path d="M10.2094 19.5069L10.2105 19.4903V19.4737C10.2105 17.9318 10.8696 16.5445 11.923 15.577L12.1476 15.382C13.0603 14.6332 14.2271 14.1842 15.5 14.1842H28.1316C29.4026 14.1842 30.5677 14.6319 31.4798 15.3786L31.8816 15.7433C32.8336 16.7002 33.4211 18.0179 33.4211 19.4737V19.4903L33.4222 19.5069L34.4046 34.2438L34.9989 43.1579L33.4222 66.8088L33.4211 66.8254V66.8421C33.4211 67.4897 33.0181 68.1421 32.2297 68.6563C31.4458 69.1675 30.3333 69.5 29.0789 69.5C27.8246 69.5 26.7121 69.1675 25.9282 68.6563C25.1398 68.1421 24.7368 67.4897 24.7368 66.8421V45.0526C24.7368 43.4394 23.429 42.1316 21.8158 42.1316C20.2025 42.1316 18.8947 43.4394 18.8947 45.0526V66.8421C18.8947 67.4897 18.4918 68.1421 17.7034 68.6563C16.9195 69.1675 15.807 69.5 14.5526 69.5C13.2983 69.5 12.1857 69.1675 11.4019 68.6563C10.6135 68.1421 10.2105 67.4897 10.2105 66.8421V66.8254L10.2094 66.8088L8.63269 43.1579L9.22696 34.2438L10.2094 19.5069ZM4.92009 25.4315C5.69249 22.4964 7.26293 19.8383 9.45012 17.7487C9.29556 18.2917 9.21212 18.8646 9.21055 19.4567L8.23129 34.1456L7.34077 38.6929C7.00391 40.4131 5.21341 41.4286 3.56419 40.8348C2.16949 40.3328 1.3893 38.8485 1.76654 37.415L4.92009 25.4315ZM36.6768 39.076L35.3993 34.1307L34.421 19.4567C34.4196 18.929 34.3532 18.4165 34.2293 17.9269C36.2503 20.0268 37.7066 22.613 38.4516 25.4438L41.6947 37.7676C42.0258 39.0258 41.3731 40.3346 40.169 40.8273C38.7147 41.4222 37.0698 40.5973 36.6768 39.076Z" fill="#EF5A3C" stroke="#EF5A3C"/>
</svg>
