<svg width="40" height="71" viewBox="0 0 40 71" fill="none" xmlns="http://www.w3.org/2000/svg">
<circle cx="19.824" cy="6.84211" r="6.34211" fill="#EF5A3C" stroke="#EF5A3C"/>
<path d="M24.5609 13.6842H15.0872C11.8898 13.6842 9.29773 16.2762 9.29773 19.4737V66.8421C9.29773 68.5862 11.1828 70 13.5083 70C15.8337 70 17.7188 68.5862 17.7188 66.8421V44.7368C17.7188 43.5741 18.6613 42.6316 19.824 42.6316C20.9867 42.6316 21.9293 43.5741 21.9293 44.7368V66.8421C21.9293 68.5862 23.8144 70 26.1398 70C28.4652 70 30.3504 68.5862 30.3504 66.8421V30.2632V19.4737C30.3504 17.8147 29.6526 16.3187 28.5345 15.2632C28.2828 15.0256 28.0099 14.8103 27.7188 14.6205C26.8106 14.0283 25.7259 13.6842 24.5609 13.6842Z" fill="#EF5A3C"/>
<path d="M31.6661 17.6316L29.5609 16.0526L30.3504 29.7368L34.2977 40.7895L35.3504 41.5789L36.403 41.8421L37.7188 41.5789L38.5083 40.5263L38.7714 39.2105L35.3504 26.8421L33.7714 20.7895L31.6661 17.6316Z" fill="#EF5A3C"/>
<path d="M5.61356 40.5263L9.29777 30.5263L10.0872 16.3158L8.24514 18.1579L6.40304 21.0526L5.08725 26.0526L1.13988 38.6842V40L2.19251 41.3158L3.24514 41.5789H4.56093L5.61356 40.5263Z" fill="#EF5A3C"/>
<path d="M9.29773 30.7895L6.244 40.1542C5.75359 41.6582 4.12272 42.4651 2.62967 41.9425C1.20687 41.4445 0.426872 39.916 0.858505 38.4717L5.87127 21.6982C6.55614 19.4065 8.00105 17.4164 9.96805 16.0556L11.1136 15.2632M30.3504 30.2632V19.4737C30.3504 17.8147 29.6526 16.3187 28.5345 15.2632M30.3504 30.2632V66.8421C30.3504 68.5862 28.4652 70 26.1398 70C23.8144 70 21.9293 68.5862 21.9293 66.8421V44.7368C21.9293 43.5741 20.9867 42.6316 19.824 42.6316C18.6613 42.6316 17.7188 43.5741 17.7188 44.7368V66.8421C17.7188 68.5862 15.8337 70 13.5083 70C11.1828 70 9.29773 68.5862 9.29773 66.8421V19.4737C9.29773 16.2762 11.8898 13.6842 15.0872 13.6842H24.5609C25.7259 13.6842 26.8106 14.0283 27.7188 14.6205M30.3504 30.2632L33.6699 40.2218C34.1574 41.6843 35.7581 42.4536 37.2047 41.9207C38.5367 41.4299 39.2706 40.0005 38.8931 38.632L34.3479 22.1557C33.6392 19.5866 31.9824 17.3819 29.7118 15.9866L28.5345 15.2632M28.5345 15.2632C28.2828 15.0256 28.0099 14.8103 27.7188 14.6205M28.5345 15.2632L27.7188 14.6205M29.5609 16.0526L31.6661 17.6316L33.7714 20.7895L35.3504 26.8421L38.7714 39.2105L38.5083 40.5263L37.7188 41.5789L36.403 41.8421L35.3504 41.5789L34.2977 40.7895L30.3504 29.7368L29.5609 16.0526ZM9.29777 30.5263L5.61356 40.5263L4.56093 41.5789H3.24514L2.19251 41.3158L1.13988 40V38.6842L5.08725 26.0526L6.40304 21.0526L8.24514 18.1579L10.0872 16.3158L9.29777 30.5263Z" stroke="#EF5A3C"/>
</svg>
