<svg width="33" height="70" viewBox="0 0 33 70" fill="none" xmlns="http://www.w3.org/2000/svg">
<circle cx="16.3157" cy="6.84211" r="6.34211" fill="#EF5A3C" stroke="#EF5A3C"/>
<path d="M9.97368 24.7368V19.4737C9.97368 17.9461 10.6206 16.5704 11.6568 15.6042C12.602 14.7228 13.8691 14.1842 15.2632 14.1842H17.3684C18.7624 14.1842 20.0296 14.7228 20.9748 15.6042C20.975 15.6044 20.9753 15.6046 20.9755 15.6048C22.0113 16.571 22.6579 17.9465 22.6579 19.4737V24.7368V66.8421C22.6579 68.3796 21.5917 69.5 20.4211 69.5C19.2505 69.5 18.1842 68.3796 18.1842 66.8421V44C18.1842 42.9681 17.3477 42.1316 16.3158 42.1316C15.2839 42.1316 14.4474 42.9681 14.4474 44V66.8421C14.4474 68.3796 13.3811 69.5 12.2105 69.5C11.0399 69.5 9.97368 68.3796 9.97368 66.8421V24.7368ZM9.34079 17.3516C9.10318 18.0146 8.97368 18.7291 8.97368 19.4737V24.658L3.78715 40.6891C3.5473 41.4304 2.76323 41.8484 2.01404 41.6344C1.24454 41.4145 0.799939 40.6115 1.02205 39.8426L5.87847 23.0319C6.50959 20.8473 7.71252 18.8907 9.34079 17.3516ZM23.6579 19.4737C23.6579 18.7291 23.5284 18.0146 23.2908 17.3516C24.9191 18.8907 26.122 20.8473 26.7531 23.0319L31.6519 39.9894C31.8534 40.6867 31.4588 41.4167 30.7651 41.6301C30.0766 41.842 29.3445 41.4673 29.1137 40.7849L23.6579 24.6546V19.4737Z" fill="#EF5A3C" stroke="#EF5A3C"/>
</svg>
